<?xml version="1.0" encoding="utf-8"?>
<!-- Generator: Adobe Illustrator 28.2.0, SVG Export Plug-In . SVG Version: 6.00 Build 0)  -->
<svg version="1.1" id="Layer_1" xmlns="http://www.w3.org/2000/svg" xmlns:xlink="http://www.w3.org/1999/xlink" x="0px" y="0px"
	 viewBox="0 0 680 680" style="enable-background:new 0 0 680 680;" xml:space="preserve">
<style type="text/css">
	.st0{fill:none;stroke:#27E4EC;stroke-width:2;stroke-miterlimit:10;}
	.st1{fill:#27E4EC;}
	.st2{font-family:'Montserrat-Regular';}
	.st3{font-size:20px;}
	.st4{fill:none;stroke:#2F24B7;stroke-width:4;stroke-linecap:round;stroke-linejoin:round;stroke-miterlimit:10;}
</style>
<g>
	<g>
		<path class="st0" d="M206.6,327.4l-8.5-8.5c-1.6-1.6-4.1-1.6-5.7,0l-4.9,4.9c-1.6,1.6-3.9,1.7-5.3,0.4c-1.4-1.4-1.2-3.7,0.4-5.3
			l15.6-15.6c1.6-1.6,1.7-3.9,0.4-5.3c-1.4-1.4-3.7-1.2-5.3,0.4l-15.6,15.6c-1.6,1.6-3.9,1.7-5.3,0.4c-1.4-1.4-1.2-3.7,0.4-5.3
			l15.6-15.6c1.6-1.6,1.7-3.9,0.4-5.3c-1.4-1.4-3.7-1.2-5.3,0.4L167.7,304c-1.6,1.6-3.9,1.7-5.3,0.4s-1.2-3.7,0.4-5.3l4.9-4.9
			c1.6-1.6,1.6-4.1,0-5.7l-8.5-8.5"/>
	</g>
	<circle class="st1" cx="220" cy="340.8" r="20"/>
</g>
<g>
	<g>
		<path class="st0" d="M473.4,353.4l4.9,4.9c1.6,1.6,1.6,4.1,0,5.7l-4.9,4.9c-1.6,1.6-1.7,3.9-0.4,5.3s3.7,1.2,5.3-0.4l15.6-15.6
			c1.6-1.6,3.9-1.7,5.3-0.4c1.4,1.4,1.2,3.7-0.4,5.3l-15.6,15.6c-1.6,1.6-1.7,3.9-0.4,5.3s3.7,1.2,5.3-0.4l15.6-15.6
			c1.6-1.6,3.9-1.7,5.3-0.4c1.4,1.4,1.2,3.7-0.4,5.3l-15.6,15.6c-1.6,1.6-1.7,3.9-0.4,5.3c1.4,1.4,3.7,1.2,5.3-0.4l4.9-4.9
			c1.6-1.6,4.1-1.6,5.7,0l12,12"/>
	</g>
	<circle class="st1" cx="460" cy="340" r="20"/>
</g>
<g>
	<g>
		<path class="st0" d="M473.4,446.6l4.9-4.9c1.6-1.6,1.6-4.1,0-5.7l-4.9-4.9c-1.6-1.6-1.7-3.9-0.4-5.3c1.4-1.4,3.7-1.2,5.3,0.4
			l15.6,15.6c1.6,1.6,3.9,1.7,5.3,0.4c1.4-1.4,1.2-3.7-0.4-5.3l-15.6-15.6c-1.6-1.6-1.7-3.9-0.4-5.3s3.7-1.2,5.3,0.4l15.6,15.6
			c1.6,1.6,3.9,1.7,5.3,0.4c1.4-1.4,1.2-3.7-0.4-5.3l-15.6-15.6c-1.6-1.6-1.7-3.9-0.4-5.3c1.4-1.4,3.7-1.2,5.3,0.4l4.9,4.9
			c1.6,1.6,4.1,1.6,5.7,0l12-12"/>
	</g>
	<circle class="st1" cx="460" cy="460" r="20"/>
</g>
<g>
	<g>
		<path class="st0" d="M593.4,353.4l4.9,4.9c1.6,1.6,1.6,4.1,0,5.7l-4.9,4.9c-1.6,1.6-1.7,3.9-0.4,5.3s3.7,1.2,5.3-0.4l15.6-15.6
			c1.6-1.6,3.9-1.7,5.3-0.4c1.4,1.4,1.2,3.7-0.4,5.3l-15.6,15.6c-1.6,1.6-1.7,3.9-0.4,5.3c1.4,1.4,3.7,1.2,5.3-0.4l15.6-15.6
			c1.6-1.6,3.9-1.7,5.3-0.4c1.4,1.4,1.2,3.7-0.4,5.3l-15.6,15.6c-1.6,1.6-1.7,3.9-0.4,5.3c1.4,1.4,3.7,1.2,5.3-0.4l4.9-4.9
			c1.6-1.6,4.1-1.6,5.7,0l12,12"/>
	</g>
	<circle class="st1" cx="580" cy="340" r="20"/>
</g>
<g>
	<g>
		<path class="st0" d="M593.4,446.6l4.9-4.9c1.6-1.6,1.6-4.1,0-5.7l-4.9-4.9c-1.6-1.6-1.7-3.9-0.4-5.3c1.4-1.4,3.7-1.2,5.3,0.4
			l15.6,15.6c1.6,1.6,3.9,1.7,5.3,0.4c1.4-1.4,1.2-3.7-0.4-5.3l-15.6-15.6c-1.6-1.6-1.7-3.9-0.4-5.3c1.4-1.4,3.7-1.2,5.3,0.4
			l15.6,15.6c1.6,1.6,3.9,1.7,5.3,0.4c1.4-1.4,1.2-3.7-0.4-5.3l-15.6-15.6c-1.6-1.6-1.7-3.9-0.4-5.3c1.4-1.4,3.7-1.2,5.3,0.4
			l4.9,4.9c1.6,1.6,4.1,1.6,5.7,0l12-12"/>
	</g>
	<circle class="st1" cx="580" cy="460" r="20"/>
</g>
<g>
	<g>
		<path class="st0" d="M473.4,566.6l4.9-4.9c1.6-1.6,1.6-4.1,0-5.7l-4.9-4.9c-1.6-1.6-1.7-3.9-0.4-5.3c1.4-1.4,3.7-1.2,5.3,0.4
			l15.6,15.6c1.6,1.6,3.9,1.7,5.3,0.4c1.4-1.4,1.2-3.7-0.4-5.3l-15.6-15.6c-1.6-1.6-1.7-3.9-0.4-5.3c1.4-1.4,3.7-1.2,5.3,0.4
			l15.6,15.6c1.6,1.6,3.9,1.7,5.3,0.4c1.4-1.4,1.2-3.7-0.4-5.3l-15.6-15.6c-1.6-1.6-1.7-3.9-0.4-5.3c1.4-1.4,3.7-1.2,5.3,0.4
			l4.9,4.9c1.6,1.6,4.1,1.6,5.7,0l12-12"/>
	</g>
	<circle class="st1" cx="460" cy="580" r="20"/>
</g>
<g>
	<g>
		<path class="st0" d="M593.4,606.6l4.9-4.9c1.6-1.6,1.6-4.1,0-5.7l-4.9-4.9c-1.6-1.6-1.7-3.9-0.4-5.3c1.4-1.4,3.7-1.2,5.3,0.4
			l15.6,15.6c1.6,1.6,3.9,1.7,5.3,0.4c1.4-1.4,1.2-3.7-0.4-5.3l-15.6-15.6c-1.6-1.6-1.7-3.9-0.4-5.3c1.4-1.4,3.7-1.2,5.3,0.4
			l15.6,15.6c1.6,1.6,3.9,1.7,5.3,0.4c1.4-1.4,1.2-3.7-0.4-5.3l-15.6-15.6c-1.6-1.6-1.7-3.9-0.4-5.3c1.4-1.4,3.7-1.2,5.3,0.4
			l4.9,4.9c1.6,1.6,4.1,1.6,5.7,0l12-12"/>
	</g>
	<circle class="st1" cx="580" cy="620" r="20"/>
</g>
<g>
	<g>
		<path class="st0" d="M326.6,473.4l-4.9,4.9c-1.6,1.6-4.1,1.6-5.7,0l-4.9-4.9c-1.6-1.6-3.9-1.7-5.3-0.4s-1.2,3.7,0.4,5.3l15.6,15.6
			c1.6,1.6,1.7,3.9,0.4,5.3c-1.4,1.4-3.7,1.2-5.3-0.4l-15.6-15.6c-1.6-1.6-3.9-1.7-5.3-0.4s-1.2,3.7,0.4,5.3l15.6,15.6
			c1.6,1.6,1.7,3.9,0.4,5.3c-1.4,1.4-3.7,1.2-5.3-0.4l-15.6-15.6c-1.6-1.6-3.9-1.7-5.3-0.4c-1.4,1.4-1.2,3.7,0.4,5.3l4.9,4.9
			c1.6,1.6,1.6,4.1,0,5.7l-12,12"/>
	</g>
	<circle class="st1" cx="340" cy="460" r="20"/>
</g>
<g>
	<g>
		<path class="st0" d="M113.4,473.4l4.9,4.9c1.6,1.6,1.6,4.1,0,5.7l-4.9,4.9c-1.6,1.6-1.7,3.9-0.4,5.3c1.4,1.4,3.7,1.2,5.3-0.4
			l15.6-15.6c1.6-1.6,3.9-1.7,5.3-0.4c1.4,1.4,1.2,3.7-0.4,5.3l-15.6,15.6c-1.6,1.6-1.7,3.9-0.4,5.3c1.4,1.4,3.7,1.2,5.3-0.4
			l15.6-15.6c1.6-1.6,3.9-1.7,5.3-0.4c1.4,1.4,1.2,3.7-0.4,5.3l-15.6,15.6c-1.6,1.6-1.7,3.9-0.4,5.3c1.4,1.4,3.7,1.2,5.3-0.4
			l4.9-4.9c1.6-1.6,4.1-1.6,5.7,0l12,12"/>
	</g>
	<circle class="st1" cx="100" cy="460" r="20"/>
</g>
<g>
	<g>
		<path class="st0" d="M206.6,233.4l-4.9,4.9c-1.6,1.6-4.1,1.6-5.7,0l-4.9-4.9c-1.6-1.6-3.9-1.7-5.3-0.4c-1.4,1.4-1.2,3.7,0.4,5.3
			l15.6,15.6c1.6,1.6,1.7,3.9,0.4,5.3c-1.4,1.4-3.7,1.2-5.3-0.4l-15.6-15.6c-1.6-1.6-3.9-1.7-5.3-0.4c-1.4,1.4-1.2,3.7,0.4,5.3
			l15.6,15.6c1.6,1.6,1.7,3.9,0.4,5.3c-1.4,1.4-3.7,1.2-5.3-0.4l-15.6-15.6c-1.6-1.6-3.9-1.7-5.3-0.4c-1.4,1.4-1.2,3.7,0.4,5.3
			l4.9,4.9c1.6,1.6,1.6,4.1,0,5.7l-12,12"/>
	</g>
	<circle class="st1" cx="220" cy="220" r="20"/>
</g>
<g>
	<g>
		<path class="st0" d="M86.6,233.4l-4.9,4.9c-1.6,1.6-4.1,1.6-5.7,0l-4.9-4.9c-1.6-1.6-3.9-1.7-5.3-0.4c-1.4,1.4-1.2,3.7,0.4,5.3
			l15.6,15.6c1.6,1.6,1.7,3.9,0.4,5.3s-3.7,1.2-5.3-0.4l-15.6-15.6c-1.6-1.6-3.9-1.7-5.3-0.4c-1.4,1.4-1.2,3.7,0.4,5.3l15.6,15.6
			c1.6,1.6,1.7,3.9,0.4,5.3c-1.4,1.4-3.7,1.2-5.3-0.4l-15.6-15.6c-1.6-1.6-3.9-1.7-5.3-0.4c-1.4,1.4-1.2,3.7,0.4,5.3l4.9,4.9
			c1.6,1.6,1.6,4.1,0,5.7l-12,12"/>
	</g>
	<circle class="st1" cx="100" cy="220" r="20"/>
</g>
<g>
	<g>
		<path class="st0" d="M206.6,113.4l-4.9,4.9c-1.6,1.6-4.1,1.6-5.7,0l-4.9-4.9c-1.6-1.6-3.9-1.7-5.3-0.4c-1.4,1.4-1.2,3.7,0.4,5.3
			l15.6,15.6c1.6,1.6,1.7,3.9,0.4,5.3c-1.4,1.4-3.7,1.2-5.3-0.4l-15.6-15.6c-1.6-1.6-3.9-1.7-5.3-0.4c-1.4,1.4-1.2,3.7,0.4,5.3
			l15.6,15.6c1.6,1.6,1.7,3.9,0.4,5.3c-1.4,1.4-3.7,1.2-5.3-0.4l-15.6-15.6c-1.6-1.6-3.9-1.7-5.3-0.4c-1.4,1.4-1.2,3.7,0.4,5.3
			l4.9,4.9c1.6,1.6,1.6,4.1,0,5.7l-12,12"/>
	</g>
	<circle class="st1" cx="220" cy="100" r="20"/>
</g>
<g>
	<g>
		<path class="st0" d="M86.6,73.4l-4.9,4.9c-1.6,1.6-4.1,1.6-5.7,0L71,73.4c-1.6-1.6-3.9-1.7-5.3-0.4c-1.4,1.4-1.2,3.7,0.4,5.3
			l15.6,15.6c1.6,1.6,1.7,3.9,0.4,5.3c-1.4,1.4-3.7,1.2-5.3-0.4L61.1,83.3c-1.6-1.6-3.9-1.7-5.3-0.4c-1.4,1.4-1.2,3.7,0.4,5.3
			l15.6,15.6c1.6,1.6,1.7,3.9,0.4,5.3c-1.4,1.4-3.7,1.2-5.3-0.4L51.2,93.2c-1.6-1.6-3.9-1.7-5.3-0.4c-1.4,1.4-1.2,3.7,0.4,5.3
			l4.9,4.9c1.6,1.6,1.6,4.1,0,5.7l-12,12"/>
	</g>
	<circle class="st1" cx="100" cy="60" r="20"/>
</g>
<g>
	<g>
		<path class="st0" d="M73.4,593.4l4.9,4.9c1.6,1.6,1.6,4.1,0,5.7l-4.9,4.9c-1.6,1.6-1.7,3.9-0.4,5.3c1.4,1.4,3.7,1.2,5.3-0.4
			l15.6-15.6c1.6-1.6,3.9-1.7,5.3-0.4c1.4,1.4,1.2,3.7-0.4,5.3l-15.6,15.6c-1.6,1.6-1.7,3.9-0.4,5.3c1.4,1.4,3.7,1.2,5.3-0.4
			l15.6-15.6c1.6-1.6,3.9-1.7,5.3-0.4c1.4,1.4,1.2,3.7-0.4,5.3l-15.6,15.6c-1.6,1.6-1.7,3.9-0.4,5.3c1.4,1.4,3.7,1.2,5.3-0.4
			l4.9-4.9c1.6-1.6,4.1-1.6,5.7,0l12,12"/>
	</g>
	<circle class="st1" cx="60" cy="580" r="20"/>
</g>
<g>
	<g>
		<path class="st0" d="M233.4,473.4l4.9,4.9c1.6,1.6,4.1,1.6,5.7,0l4.9-4.9c1.6-1.6,3.9-1.7,5.3-0.4s1.2,3.7-0.4,5.3l-15.6,15.6
			c-1.6,1.6-1.7,3.9-0.4,5.3s3.7,1.2,5.3-0.4l15.6-15.6c1.6-1.6,3.9-1.7,5.3-0.4s1.2,3.7-0.4,5.3l-15.6,15.6
			c-1.6,1.6-1.7,3.9-0.4,5.3c1.4,1.4,3.7,1.2,5.3-0.4l15.6-15.6c1.6-1.6,3.9-1.7,5.3-0.4c1.4,1.4,1.2,3.7-0.4,5.3l-4.9,4.9
			c-1.6,1.6-1.6,4.1,0,5.7l12,12"/>
	</g>
	<circle class="st1" cx="220" cy="460" r="20"/>
</g>
<g>
	<g>
		<path class="st0" d="M326.6,593.4l-4.9,4.9c-1.6,1.6-4.1,1.6-5.7,0l-4.9-4.9c-1.6-1.6-3.9-1.7-5.3-0.4s-1.2,3.7,0.4,5.3l15.6,15.6
			c1.6,1.6,1.7,3.9,0.4,5.3c-1.4,1.4-3.7,1.2-5.3-0.4l-15.6-15.6c-1.6-1.6-3.9-1.7-5.3-0.4c-1.4,1.4-1.2,3.7,0.4,5.3l15.6,15.6
			c1.6,1.6,1.7,3.9,0.4,5.3c-1.4,1.4-3.7,1.2-5.3-0.4l-15.6-15.6c-1.6-1.6-3.9-1.7-5.3-0.4c-1.4,1.4-1.2,3.7,0.4,5.3l4.9,4.9
			c1.6,1.6,1.6,4.1,0,5.7l-12,12"/>
	</g>
	<circle class="st1" cx="340" cy="580" r="20"/>
</g>
<g>
	<g>
		<path class="st0" d="M233.4,593.4l4.9,4.9c1.6,1.6,4.1,1.6,5.7,0l4.9-4.9c1.6-1.6,3.9-1.7,5.3-0.4s1.2,3.7-0.4,5.3l-15.6,15.6
			c-1.6,1.6-1.7,3.9-0.4,5.3c1.4,1.4,3.7,1.2,5.3-0.4l15.6-15.6c1.6-1.6,3.9-1.7,5.3-0.4c1.4,1.4,1.2,3.7-0.4,5.3l-15.6,15.6
			c-1.6,1.6-1.7,3.9-0.4,5.3c1.4,1.4,3.7,1.2,5.3-0.4l15.6-15.6c1.6-1.6,3.9-1.7,5.3-0.4c1.4,1.4,1.2,3.7-0.4,5.3l-4.9,4.9
			c-1.6,1.6-1.6,4.1,0,5.7l12,12"/>
	</g>
	<circle class="st1" cx="220" cy="580" r="20"/>
</g>
<g>
	<g>
		<path class="st0" d="M447.4,206.6l-8.5-8.5c-1.6-1.6-1.6-4.1,0-5.7l4.9-4.9c1.6-1.6,1.7-3.9,0.4-5.3c-1.4-1.4-3.7-1.2-5.3,0.4
			l-15.6,15.6c-1.6,1.6-3.9,1.7-5.3,0.4c-1.4-1.4-1.2-3.7,0.4-5.3l15.6-15.6c1.6-1.6,1.7-3.9,0.4-5.3c-1.4-1.4-3.7-1.2-5.3,0.4
			l-15.6,15.6c-1.6,1.6-3.9,1.7-5.3,0.4c-1.4-1.4-1.2-3.7,0.4-5.3l15.6-15.6c1.6-1.6,1.7-3.9,0.4-5.3s-3.7-1.2-5.3,0.4l-4.9,4.9
			c-1.6,1.6-4.1,1.6-5.7,0l-8.5-8.5"/>
	</g>
	<circle class="st1" cx="460.8" cy="220" r="20"/>
</g>
<g>
	<g>
		<path class="st0" d="M353.4,206.6l8.5-8.5c1.6-1.6,1.6-4.1,0-5.7l-4.9-4.9c-1.6-1.6-1.7-3.9-0.4-5.3c1.4-1.4,3.7-1.2,5.3,0.4
			l15.6,15.6c1.6,1.6,3.9,1.7,5.3,0.4c1.4-1.4,1.2-3.7-0.4-5.3l-15.6-15.6c-1.6-1.6-1.7-3.9-0.4-5.3c1.4-1.4,3.7-1.2,5.3,0.4
			l15.6,15.6c1.6,1.6,3.9,1.7,5.3,0.4c1.4-1.4,1.2-3.7-0.4-5.3l-15.6-15.6c-1.6-1.6-1.7-3.9-0.4-5.3c1.4-1.4,3.7-1.2,5.3,0.4
			l4.9,4.9c1.6,1.6,4.1,1.6,5.7,0l8.5-8.5"/>
	</g>
	<circle class="st1" cx="340" cy="220" r="20"/>
</g>
<g>
	<g>
		<path class="st0" d="M353.4,327.4l8.5-8.5c1.6-1.6,1.6-4.1,0-5.7l-4.9-4.9c-1.6-1.6-1.7-3.9-0.4-5.3c1.4-1.4,3.7-1.2,5.3,0.4
			l15.6,15.6c1.6,1.6,3.9,1.7,5.3,0.4c1.4-1.4,1.2-3.7-0.4-5.3l-15.6-15.6c-1.6-1.6-1.7-3.9-0.4-5.3s3.7-1.2,5.3,0.4l15.6,15.6
			c1.6,1.6,3.9,1.7,5.3,0.4s1.2-3.7-0.4-5.3l-15.6-15.6c-1.6-1.6-1.7-3.9-0.4-5.3s3.7-1.2,5.3,0.4l4.9,4.9c1.6,1.6,4.1,1.6,5.7,0
			l8.5-8.5"/>
	</g>
	<circle class="st1" cx="340" cy="340.8" r="20"/>
</g>
<g>
	<g>
		<path class="st0" d="M447.4,86.6l-8.5-8.5c-1.6-1.6-1.6-4.1,0-5.7l4.9-4.9c1.6-1.6,1.7-3.9,0.4-5.3c-1.4-1.4-3.7-1.2-5.3,0.4
			l-15.6,15.6c-1.6,1.6-3.9,1.7-5.3,0.4s-1.2-3.7,0.4-5.3l15.6-15.6c1.6-1.6,1.7-3.9,0.4-5.3c-1.4-1.4-3.7-1.2-5.3,0.4l-15.6,15.6
			c-1.6,1.6-3.9,1.7-5.3,0.4c-1.4-1.4-1.2-3.7,0.4-5.3L424,47.7c1.6-1.6,1.7-3.9,0.4-5.3c-1.4-1.4-3.7-1.2-5.3,0.4l-4.9,4.9
			c-1.6,1.6-4.1,1.6-5.7,0l-8.5-8.5"/>
	</g>
	<circle class="st1" cx="460.8" cy="100" r="20"/>
</g>
<g>
	<g>
		<path class="st0" d="M566.6,206.6l-8.5-8.5c-1.6-1.6-1.6-4.1,0-5.7l4.9-4.9c1.6-1.6,1.7-3.9,0.4-5.3c-1.4-1.4-3.7-1.2-5.3,0.4
			l-15.6,15.6c-1.6,1.6-3.9,1.7-5.3,0.4c-1.4-1.4-1.2-3.7,0.4-5.3l15.6-15.6c1.6-1.6,1.7-3.9,0.4-5.3c-1.4-1.4-3.7-1.2-5.3,0.4
			l-15.6,15.6c-1.6,1.6-3.9,1.7-5.3,0.4c-1.4-1.4-1.2-3.7,0.4-5.3l15.6-15.6c1.6-1.6,1.7-3.9,0.4-5.3s-3.7-1.2-5.3,0.4l-4.9,4.9
			c-1.6,1.6-4.1,1.6-5.7,0l-8.5-8.5"/>
	</g>
	<circle class="st1" cx="580" cy="220" r="20"/>
</g>
<g>
	<g>
		<path class="st0" d="M606.6,86.6l-8.5-8.5c-1.6-1.6-1.6-4.1,0-5.7l4.9-4.9c1.6-1.6,1.7-3.9,0.4-5.3c-1.4-1.4-3.7-1.2-5.3,0.4
			l-15.6,15.6c-1.6,1.6-3.9,1.7-5.3,0.4s-1.2-3.7,0.4-5.3l15.6-15.6c1.6-1.6,1.7-3.9,0.4-5.3c-1.4-1.4-3.7-1.2-5.3,0.4l-15.6,15.6
			c-1.6,1.6-3.9,1.7-5.3,0.4c-1.4-1.4-1.2-3.7,0.4-5.3l15.6-15.6c1.6-1.6,1.7-3.9,0.4-5.3c-1.4-1.4-3.7-1.2-5.3,0.4l-4.9,4.9
			c-1.6,1.6-4.1,1.6-5.7,0l-8.5-8.5"/>
	</g>
	<circle class="st1" cx="620" cy="100" r="20"/>
</g>
<g>
	<g>
		<path class="st0" d="M353.4,86.6l8.5-8.5c1.6-1.6,1.6-4.1,0-5.7l-4.9-4.9c-1.6-1.6-1.7-3.9-0.4-5.3c1.4-1.4,3.7-1.2,5.3,0.4
			l15.6,15.6c1.6,1.6,3.9,1.7,5.3,0.4s1.2-3.7-0.4-5.3l-15.6-15.6c-1.6-1.6-1.7-3.9-0.4-5.3c1.4-1.4,3.7-1.2,5.3,0.4l15.6,15.6
			c1.6,1.6,3.9,1.7,5.3,0.4c1.4-1.4,1.2-3.7-0.4-5.3l-15.6-15.6c-1.6-1.6-1.7-3.9-0.4-5.3c1.4-1.4,3.7-1.2,5.3,0.4l4.9,4.9
			c1.6,1.6,4.1,1.6,5.7,0l8.5-8.5"/>
	</g>
	<circle class="st1" cx="340" cy="100" r="20"/>
</g>
<g>
	<g>
		<path class="st0" d="M86.6,327.4l-8.5-8.5c-1.6-1.6-4.1-1.6-5.7,0l-4.9,4.9c-1.6,1.6-3.9,1.7-5.3,0.4c-1.4-1.4-1.2-3.7,0.4-5.3
			l15.6-15.6c1.6-1.6,1.7-3.9,0.4-5.3s-3.7-1.2-5.3,0.4l-15.6,15.6c-1.6,1.6-3.9,1.7-5.3,0.4c-1.4-1.4-1.2-3.7,0.4-5.3l15.6-15.6
			c1.6-1.6,1.7-3.9,0.4-5.3c-1.4-1.4-3.7-1.2-5.3,0.4L47.7,304c-1.6,1.6-3.9,1.7-5.3,0.4c-1.4-1.4-1.2-3.7,0.4-5.3l4.9-4.9
			c1.6-1.6,1.6-4.1,0-5.7l-8.5-8.5"/>
	</g>
	<circle class="st1" cx="100" cy="340.8" r="20"/>
</g>
<text transform="matrix(1 0 0 1 86.0901 65.9898)" class="st2 st3">D0</text>
<rect x="220" y="100" class="st0" width="240" height="480"/>
<rect x="220" y="100" class="st0" width="120" height="480"/>
<rect x="220" y="100" transform="matrix(6.123234e-17 -1 1 6.123234e-17 0 680)" class="st0" width="240" height="480"/>
<rect x="280" y="40" transform="matrix(6.123234e-17 -1 1 6.123234e-17 60 620)" class="st0" width="120" height="480"/>
<text transform="matrix(1 0 0 1 206.0901 105.9898)" class="st2 st3">D5</text>
<text transform="matrix(1 0 0 1 326.4602 105.9898)" class="st2 st3">A1</text>
<text transform="matrix(1 0 0 1 446.4602 105.9898)" class="st2 st3">A2</text>
<text transform="matrix(1 0 0 1 206.0901 225.9898)" class="st2 st3">D4</text>
<text transform="matrix(1 0 0 1 326.4602 225.9898)" class="st2 st3">A3</text>
<text transform="matrix(1 0 0 1 446.4602 225.9898)" class="st2 st3">A4</text>
<text transform="matrix(1 0 0 1 206.0901 345.9898)" class="st2 st3">D3</text>
<text transform="matrix(1 0 0 1 326.4602 345.9898)" class="st2 st3">A6</text>
<text transform="matrix(1 0 0 1 446.7805 345.9898)" class="st2 st3">B3</text>
<text transform="matrix(1 0 0 1 206.8703 465.9898)" class="st2 st3">C4</text>
<text transform="matrix(1 0 0 1 86.0901 225.9898)" class="st2 st3">D2</text>
<text transform="matrix(1 0 0 1 86.0901 345.9898)" class="st2 st3">D1</text>
<text transform="matrix(1 0 0 1 86.8703 465.9898)" class="st2 st3">C5</text>
<text transform="matrix(1 0 0 1 326.8703 465.9898)" class="st2 st3">C3</text>
<text transform="matrix(1 0 0 1 446.7805 465.9898)" class="st2 st3">B4</text>
<text transform="matrix(1 0 0 1 566.4602 225.9898)" class="st2 st3">A5</text>
<text transform="matrix(1 0 0 1 566.7805 345.9898)" class="st2 st3">B1</text>
<text transform="matrix(1 0 0 1 566.7805 465.9898)" class="st2 st3">B2</text>
<text transform="matrix(1 0 0 1 206.8703 585.9898)" class="st2 st3">C2</text>
<text transform="matrix(1 0 0 1 46.8703 585.9898)" class="st2 st3">C0</text>
<text transform="matrix(1 0 0 1 326.8703 585.9898)" class="st2 st3">C1</text>
<text transform="matrix(1 0 0 1 446.7805 585.9898)" class="st2 st3">B5</text>
<text transform="matrix(1 0 0 1 566.7805 625.9898)" class="st2 st3">B0</text>
<text transform="matrix(1 0 0 1 606.4504 105.99)" class="st2 st3">A0</text>
<polyline class="st4" points="580,0 520,114 520,280 400,280 400,0 "/>
<polyline class="st4" points="680,580 566,520 400,520 400,400 680,400 "/>
<polyline class="st4" points="100,680 160,566 160,400 280,400 280,680 "/>
<polyline class="st4" points="0,100 114,160 280,160 280,280 0,280 "/>
</svg>
