<svg width="576" height="544" viewBox="0 0 576 544" fill="none" xmlns="http://www.w3.org/2000/svg">
<path d="M162.2 340L333.8 204" stroke="#27E4EC" stroke-width="2" stroke-miterlimit="10"/>
<path d="M333.8 340L162.2 204" stroke="#27E4EC" stroke-width="2" stroke-miterlimit="10"/>
<path d="M147 210C158.046 210 167 201.046 167 190C167 178.954 158.046 170 147 170C135.954 170 127 178.954 127 190C127 201.046 135.954 210 147 210Z" fill="#27E4EC"/>
<path d="M147 170V154C147 151.8 148.8 150 151 150H163C165.2 150 167 148.2 167 146V144C167 141.8 165.2 140 163 140H131C128.8 140 127 138.2 127 136V134C127 131.8 128.8 130 131 130H163C165.2 130 167 128.2 167 126V124C167 121.8 165.2 120 163 120H131C128.8 120 127 118.2 127 116V114C127 111.8 128.8 110 131 110H143C145.2 110 147 108.2 147 106V90" stroke="#27E4EC" stroke-width="2" stroke-miterlimit="10"/>
<path d="M147.717 195.864L148.657 197.524C147.577 198.484 146.157 199.064 144.857 199.064C143.097 199.064 141.517 197.964 140.397 196.084C136.217 196.064 132.997 192.984 132.997 188.984C132.997 184.964 136.237 181.924 140.417 181.924C144.597 181.924 147.837 184.984 147.837 188.984C147.837 192.184 145.777 194.804 142.797 195.724C143.557 196.544 144.337 197.024 145.137 197.024C145.877 197.024 146.797 196.584 147.717 195.864ZM135.397 188.984C135.397 191.764 137.697 193.964 140.437 193.964C143.177 193.964 145.417 191.764 145.417 188.984C145.417 186.204 143.177 184.044 140.437 184.044C137.677 184.044 135.397 186.204 135.397 188.984ZM155.304 187.864C157.924 188.084 159.684 189.424 159.684 191.644C159.684 194.264 157.564 196.084 154.184 196.084C152.324 196.084 150.384 195.484 149.104 194.564L150.084 192.644C151.184 193.584 152.604 194.104 154.024 194.104C156.144 194.104 157.384 193.144 157.384 191.684C157.384 190.164 156.124 189.384 153.984 189.384H151.944V188.024L156.044 184.084H149.804L149.784 181.984H158.984V183.464L154.484 187.804L155.304 187.864Z" fill="black"/>
<path d="M248 292C259.046 292 268 283.046 268 272C268 260.954 259.046 252 248 252C236.954 252 228 260.954 228 272C228 283.046 236.954 292 248 292Z" fill="#27E4EC"/>
<path d="M248.717 277.864L249.657 279.524C248.577 280.484 247.157 281.064 245.857 281.064C244.097 281.064 242.517 279.964 241.397 278.084C237.217 278.064 233.997 274.984 233.997 270.984C233.997 266.964 237.237 263.924 241.417 263.924C245.597 263.924 248.837 266.984 248.837 270.984C248.837 274.184 246.777 276.804 243.797 277.724C244.557 278.544 245.337 279.024 246.137 279.024C246.877 279.024 247.797 278.584 248.717 277.864ZM236.397 270.984C236.397 273.764 238.697 275.964 241.437 275.964C244.177 275.964 246.417 273.764 246.417 270.984C246.417 268.204 244.177 266.044 241.437 266.044C238.677 266.044 236.397 268.204 236.397 270.984ZM256.064 270.724C257.124 269.664 257.844 268.544 257.844 267.744C257.844 266.604 256.924 265.944 255.384 265.944C254.124 265.944 252.644 266.604 251.444 267.684L250.484 265.864C252.044 264.624 253.864 263.864 255.704 263.864C258.444 263.864 260.304 265.244 260.304 267.404C260.304 268.804 259.204 270.384 257.664 271.984L253.824 275.864H260.984V277.984H250.724V276.244L256.064 270.724Z" fill="black"/>
<path d="M349 210C360.046 210 369 201.046 369 190C369 178.954 360.046 170 349 170C337.954 170 329 178.954 329 190C329 201.046 337.954 210 349 210Z" fill="#27E4EC"/>
<path d="M349 170V154C349 151.8 350.8 150 353 150H365C367.2 150 369 148.2 369 146V144C369 141.8 367.2 140 365 140H333C330.8 140 329 138.2 329 136V134C329 131.8 330.8 130 333 130H365C367.2 130 369 128.2 369 126V124C369 121.8 367.2 120 365 120H333C330.8 120 329 118.2 329 116V114C329 111.8 330.8 110 333 110H345C347.2 110 349 108.2 349 106V90" stroke="#27E4EC" stroke-width="2" stroke-miterlimit="10"/>
<path d="M349.717 195.864L350.657 197.524C349.577 198.484 348.157 199.064 346.857 199.064C345.097 199.064 343.517 197.964 342.397 196.084C338.217 196.064 334.997 192.984 334.997 188.984C334.997 184.964 338.237 181.924 342.417 181.924C346.597 181.924 349.837 184.984 349.837 188.984C349.837 192.184 347.777 194.804 344.797 195.724C345.557 196.544 346.337 197.024 347.137 197.024C347.877 197.024 348.797 196.584 349.717 195.864ZM337.397 188.984C337.397 191.764 339.697 193.964 342.437 193.964C345.177 193.964 347.417 191.764 347.417 188.984C347.417 186.204 345.177 184.044 342.437 184.044C339.677 184.044 337.397 186.204 337.397 188.984ZM356.264 181.964H358.544L353.904 190.424H358.204L358.184 187.124H360.384L360.404 190.424H362.464V192.544H360.384V195.984H358.184V192.544H351.364V190.784L356.264 181.964Z" fill="black"/>
<path d="M494.833 171.855C502.644 164.044 502.644 151.381 494.833 143.571C487.023 135.76 474.36 135.76 466.549 143.571C458.739 151.381 458.739 164.044 466.549 171.855C474.36 179.665 487.023 179.665 494.833 171.855Z" fill="#27E4EC"/>
<path d="M466.6 143.6L455.3 132.3C453.7 130.7 453.7 128.2 455.3 126.6L463.8 118.1C465.4 116.5 465.4 114 463.8 112.4L462.4 111C460.8 109.4 458.3 109.4 456.7 111L434 133.7C432.4 135.3 429.9 135.3 428.3 133.7L426.9 132.3C425.3 130.7 425.3 128.2 426.9 126.6L449.5 104C451.1 102.4 451.1 99.9 449.5 98.3L448.1 96.9C446.5 95.3 444 95.3 442.4 96.9L419.8 119.5C418.2 121.1 415.7 121.1 414.1 119.5L412.7 118.1C411.1 116.5 411.1 114 412.7 112.4L421.2 103.9C422.8 102.3 422.8 99.8 421.2 98.2L410 87" stroke="#27E4EC" stroke-width="2" stroke-miterlimit="10"/>
<path d="M481.226 163.521L482.166 165.181C481.086 166.141 479.666 166.721 478.366 166.721C476.606 166.721 475.026 165.621 473.906 163.741C469.726 163.721 466.506 160.641 466.506 156.641C466.506 152.621 469.746 149.581 473.926 149.581C478.106 149.581 481.346 152.641 481.346 156.641C481.346 159.841 479.286 162.461 476.306 163.381C477.066 164.201 477.846 164.681 478.646 164.681C479.386 164.681 480.306 164.241 481.226 163.521ZM468.906 156.641C468.906 159.421 471.206 161.621 473.946 161.621C476.686 161.621 478.926 159.421 478.926 156.641C478.926 153.861 476.686 151.701 473.946 151.701C471.186 151.701 468.906 153.861 468.906 156.641ZM492.473 152.361C491.613 151.801 490.433 151.481 489.373 151.481C486.653 151.481 485.373 153.521 485.473 156.561C486.213 155.241 487.533 154.561 489.293 154.561C492.093 154.561 493.813 156.301 493.813 159.041C493.813 161.941 491.853 163.741 488.873 163.741C485.333 163.741 483.173 161.221 483.173 156.921C483.173 152.441 485.513 149.521 489.213 149.521C490.593 149.521 492.253 149.941 493.393 150.581L492.473 152.361ZM488.853 156.421C486.953 156.421 485.833 157.661 485.853 159.101C485.833 160.321 486.733 161.721 488.753 161.721C490.453 161.721 491.613 160.721 491.613 159.021C491.613 157.421 490.553 156.421 488.853 156.421Z" fill="black"/>
<path d="M494.847 398.447C502.657 390.637 502.657 377.973 494.847 370.163C487.036 362.353 474.373 362.353 466.563 370.163C458.752 377.973 458.752 390.637 466.563 398.447C474.373 406.257 487.036 406.257 494.847 398.447Z" fill="#27E4EC"/>
<path d="M466.6 398.4L455.3 409.7C453.7 411.3 451.2 411.3 449.6 409.7L441.1 401.2C439.5 399.6 437 399.6 435.4 401.2L434 402.6C432.4 404.2 432.4 406.7 434 408.3L456.6 430.9C458.2 432.5 458.2 435 456.6 436.6L455.2 438C453.6 439.6 451.1 439.6 449.5 438L427 415.4C425.4 413.8 422.9 413.8 421.3 415.4L419.9 416.8C418.3 418.4 418.3 420.9 419.9 422.5L442.5 445.1C444.1 446.7 444.1 449.2 442.5 450.8L441.1 452.2C439.5 453.8 437 453.8 435.4 452.2L426.9 443.7C425.3 442.1 422.8 442.1 421.2 443.7L410 455" stroke="#27E4EC" stroke-width="2" stroke-miterlimit="10"/>
<path d="M481.699 389.697L482.639 391.357C481.559 392.317 480.139 392.897 478.839 392.897C477.079 392.897 475.499 391.797 474.379 389.917C470.199 389.897 466.979 386.817 466.979 382.817C466.979 378.797 470.219 375.757 474.399 375.757C478.579 375.757 481.819 378.817 481.819 382.817C481.819 386.017 479.759 388.637 476.779 389.557C477.539 390.377 478.319 390.857 479.119 390.857C479.859 390.857 480.779 390.417 481.699 389.697ZM469.379 382.817C469.379 385.597 471.679 387.797 474.419 387.797C477.159 387.797 479.399 385.597 479.399 382.817C479.399 380.037 477.159 377.877 474.419 377.877C471.659 377.877 469.379 380.037 469.379 382.817ZM486.646 380.957C487.266 380.937 488.186 380.937 488.726 380.937C491.906 380.937 493.946 382.737 493.946 385.177C493.946 388.037 491.826 389.897 488.546 389.897C486.826 389.897 484.806 389.257 483.366 388.297L484.326 386.377C485.506 387.317 486.966 387.857 488.286 387.857C490.246 387.857 491.426 386.897 491.426 385.337C491.426 383.897 490.246 383.017 488.326 383.017C487.426 383.017 485.466 383.097 484.466 383.217V375.797H493.346V377.917H486.646V380.957Z" fill="black"/>
<path d="M147 372C158.046 372 167 363.046 167 352C167 340.954 158.046 332 147 332C135.954 332 127 340.954 127 352C127 363.046 135.954 372 147 372Z" fill="#27E4EC"/>
<path d="M147 452V436C147 433.8 148.8 432 151 432H163C165.2 432 167 430.2 167 428V426C167 423.8 165.2 422 163 422H131C128.8 422 127 420.2 127 418V416C127 413.8 128.8 412 131 412H163C165.2 412 167 410.2 167 408V406C167 403.8 165.2 402 163 402H131C128.8 402 127 400.2 127 398V396C127 393.8 128.8 392 131 392H143C145.2 392 147 390.2 147 388V372" stroke="#27E4EC" stroke-width="2" stroke-miterlimit="10"/>
<path d="M147.717 357.864L148.657 359.524C147.577 360.484 146.157 361.064 144.857 361.064C143.097 361.064 141.517 359.964 140.397 358.084C136.217 358.064 132.997 354.984 132.997 350.984C132.997 346.964 136.237 343.924 140.417 343.924C144.597 343.924 147.837 346.984 147.837 350.984C147.837 354.184 145.777 356.804 142.797 357.724C143.557 358.544 144.337 359.024 145.137 359.024C145.877 359.024 146.797 358.584 147.717 357.864ZM135.397 350.984C135.397 353.764 137.697 355.964 140.437 355.964C143.177 355.964 145.417 353.764 145.417 350.984C145.417 348.204 143.177 346.044 140.437 346.044C137.677 346.044 135.397 348.204 135.397 350.984ZM154.864 343.904C158.244 343.904 160.124 346.424 160.124 350.964C160.124 355.524 158.244 358.044 154.864 358.044C151.464 358.044 149.584 355.524 149.584 350.964C149.584 346.424 151.464 343.904 154.864 343.904ZM154.864 345.744C152.904 345.744 151.924 347.404 151.924 350.964C151.924 354.524 152.904 356.204 154.864 356.204C156.804 356.204 157.784 354.524 157.784 350.964C157.784 347.404 156.804 345.744 154.864 345.744Z" fill="black"/>
<path d="M349 372C360.046 372 369 363.046 369 352C369 340.954 360.046 332 349 332C337.954 332 329 340.954 329 352C329 363.046 337.954 372 349 372Z" fill="#27E4EC"/>
<path d="M349 452V436C349 433.8 350.8 432 353 432H365C367.2 432 369 430.2 369 428V426C369 423.8 367.2 422 365 422H333C330.8 422 329 420.2 329 418V416C329 413.8 330.8 412 333 412H365C367.2 412 369 410.2 369 408V406C369 403.8 367.2 402 365 402H333C330.8 402 329 400.2 329 398V396C329 393.8 330.8 392 333 392H345C347.2 392 349 390.2 349 388V372" stroke="#27E4EC" stroke-width="2" stroke-miterlimit="10"/>
<path d="M248 452V416C248 413.8 249.8 412 252 412H254C256.2 412 258 410.2 258 408V406C258 403.8 256.2 402 254 402H242C239.8 402 238 400.2 238 398V396C238 393.8 239.8 392 242 392H254C256.2 392 258 390.2 258 388V386C258 383.8 256.2 382 254 382H242C239.8 382 238 380.2 238 378V376C238 373.8 239.8 372 242 372H254C256.2 372 258 370.2 258 368V366C258 363.8 256.2 362 254 362H242C239.8 362 238 360.2 238 358V356C238 353.8 239.8 352 242 352H254C256.2 352 258 350.2 258 348V346C258 343.8 256.2 342 254 342H242C239.8 342 238 340.2 238 338V336C238 333.8 239.8 332 242 332H244C246.2 332 248 330.2 248 328V292" stroke="#27E4EC" stroke-width="2" stroke-miterlimit="10"/>
<path d="M350.717 357.864L351.657 359.524C350.577 360.484 349.157 361.064 347.857 361.064C346.097 361.064 344.517 359.964 343.397 358.084C339.217 358.064 335.997 354.984 335.997 350.984C335.997 346.964 339.237 343.924 343.417 343.924C347.597 343.924 350.837 346.984 350.837 350.984C350.837 354.184 348.777 356.804 345.797 357.724C346.557 358.544 347.337 359.024 348.137 359.024C348.877 359.024 349.797 358.584 350.717 357.864ZM338.397 350.984C338.397 353.764 340.697 355.964 343.437 355.964C346.177 355.964 348.417 353.764 348.417 350.984C348.417 348.204 346.177 346.044 343.437 346.044C340.677 346.044 338.397 348.204 338.397 350.984ZM353.804 343.964H359.184V357.984H356.824V346.084H353.804V343.964Z" fill="black"/>
<path d="M411 8V88H87V454H411V535" stroke="#2F24B7" stroke-width="6" stroke-miterlimit="10" stroke-linecap="round" stroke-linejoin="round"/>
</svg>
